<svg xmlns="http://www.w3.org/2000/svg" viewBox="0 0 100 120" width="100%" height="100%" style="max-width: 250px; display: block; margin: auto;">
  <path d="M35 28 C35 12, 65 12, 65 28 Z" fill="none" stroke="currentColor" stroke-width="4" stroke-linecap="round"/>
  <path d="M30 28 L70 28 L64 34 L36 34 Z" fill="currentColor"/> 
  <line x1="50" y1="14" x2="50" y2="22" stroke="currentColor" stroke-width="3" stroke-linecap="round"/>
  <polygon points="15 38, 85 38, 85 78, 50 114, 15 78" fill="none" stroke="currentColor" stroke-width="4" stroke-linejoin="round"/>
  <polygon points="22 43, 78 43, 78 75, 50 106, 22 75" fill="none" stroke="currentColor" stroke-width="1.5" stroke-linejoin="round" opacity="0.6"/>
  <rect x="36" y="54" width="28" height="28" rx="3" fill="none" stroke="currentColor" stroke-width="3.5" stroke-linejoin="round"/>
  <circle cx="50" cy="68" r="6" fill="none" stroke="currentColor" stroke-width="2"/>
  <circle cx="50" cy="68" r="1.5" fill="currentColor"/>
  <line x1="50" y1="59" x2="50" y2="62" stroke="currentColor" stroke-width="2" stroke-linecap="round"/>
  <line x1="50" y1="74" x2="50" y2="77" stroke="currentColor" stroke-width="2" stroke-linecap="round"/>
  <line x1="41" y1="68" x2="44" y2="68" stroke="currentColor" stroke-width="2" stroke-linecap="round"/>
  <line x1="56" y1="68" x2="59" y2="68" stroke="currentColor" stroke-width="2" stroke-linecap="round"/>
</svg>
